<?xml version="1.0" standalone="no"?>
<!DOCTYPE svg PUBLIC "-//W3C//DTD SVG 20010904//EN"
 "http://www.w3.org/TR/2001/REC-SVG-20010904/DTD/svg10.dtd">
<svg version="1.0" xmlns="http://www.w3.org/2000/svg"
 width="16.000000pt" height="16.000000pt" viewBox="0 0 16.000000 16.000000"
 preserveAspectRatio="xMidYMid meet">
<metadata>
Created by potrace 1.11, written by Peter Selinger 2001-2013
</metadata>
<g transform="translate(0.000000,16.000000) scale(0.003125,-0.003125)"
fill="#000000" stroke="none">
<path d="M3988 4655 c-2 -2 -30 -6 -63 -10 -122 -13 -308 -69 -453 -136 -34
-16 -64 -29 -66 -29 -7 0 -147 -80 -191 -108 -198 -129 -349 -326 -475 -617
-17 -38 -49 -154 -65 -232 -13 -68 -20 -82 -53 -111 l-37 -33 -85 8 c-142 12
-278 8 -450 -11 -398 -46 -898 -254 -1265 -526 -89 -65 -249 -217 -313 -295
-51 -62 -109 -164 -132 -230 -61 -176 -19 -405 94 -517 113 -110 304 -143 485
-82 180 60 277 152 596 559 60 77 119 151 131 165 248 292 346 395 475 500
186 151 310 198 427 164 79 -24 74 -5 78 -265 2 -129 5 -252 8 -275 2 -23 7
-70 11 -105 7 -72 34 -276 40 -311 59 -305 93 -425 191 -668 181 -452 461
-800 761 -949 122 -60 166 -72 279 -77 102 -4 172 16 242 68 137 102 206 289
206 558 -1 384 -142 765 -453 1220 -279 409 -716 818 -1036 969 -38 19 -71 35
-73 36 -7 6 62 199 77 214 36 36 330 131 621 201 252 61 630 164 735 200 50
17 95 33 100 34 49 14 212 89 270 124 86 52 135 100 161 157 42 89 23 166 -59
247 -113 109 -326 168 -600 166 -64 0 -118 -2 -119 -3z"/>
</g>
</svg>
