<svg xmlns="http://www.w3.org/2000/svg" width="363.025" height="363.024" viewBox="0 0 363.025 363.024"><path d="M181.512 363.024C81.43 363.024 0 281.6 0 181.514 0 81.423 81.43 0 181.512 0c100.083 0 181.513 81.424 181.513 181.513 0 100.088-81.43 181.51-181.513 181.51zm0-351.314C87.88 11.71 11.71 87.886 11.71 181.513s76.17 169.802 169.802 169.802c93.633 0 169.803-76.175 169.803-169.802S275.145 11.71 181.512 11.71z" fill="#030303"/><path fill="#030303" d="M147.957 258.935l-64.89-64.89 8.28-8.278 56.61 56.608 123.214-123.21 8.28 8.28"/></svg>
